<?xml version="1.0" encoding="UTF-8"?>
<svg width="166px" height="59px" viewBox="0 0 166 59" version="1.1" xmlns="http://www.w3.org/2000/svg" xmlns:xlink="http://www.w3.org/1999/xlink">
    <!-- Generator: Sketch 52.6 (67491) - http://www.bohemiancoding.com/sketch -->
    <title>Combined Shape</title>
    <desc>Created with Sketch.</desc>
    <g id="DESIGN" stroke="none" stroke-width="1" fill="none" fill-rule="evenodd">
        <g id="Homepage---Hero" transform="translate(-200.000000, -21.000000)" fill="#FFFFFF">
            <g id="HERO">
                <g id="Header">
                    <path d="M363.409889,53.8116623 C363.969094,52.2424039 353.338893,48.2097175 341.91459,44.9956424 C341.622106,46.0257411 341.409184,47.0387538 341.317498,47.9974708 C340.962123,51.6994474 341.922546,54.4316959 347.616133,54.6185033 C350.26819,54.7054523 362.936308,55.1405769 363.409889,53.8116623 Z M278.710015,71.6096264 C283.284813,66.9925972 286.962079,61.1620791 288.931421,57.7072807 C282.465327,62.2848221 277.181672,67.935747 274.305706,72.1791613 C269.191025,79.7254981 271.89044,78.4915059 278.710015,71.6096264 Z M343.164467,43.9397248 C356.045506,47.2236628 366.878022,51.8547405 365.94374,54.5235808 C364.996577,57.2288714 347.095194,56.2135806 345.56382,55.9948792 C341.408426,55.4010442 339.044307,52.2659447 339.99147,47.3094727 C340.165369,46.3989763 340.398371,45.5093629 340.66926,44.6493653 C340.540446,44.6140541 340.411253,44.5802617 340.282439,44.5449505 C332.703618,55.1971507 328.928226,56.5830189 326.652003,56.4060834 C324.615602,56.2477527 322.54965,52.8958502 321.269086,52.7200538 C320.116578,52.5617231 317.190601,54.0914937 314.939005,55.0456545 C311.410633,56.5404936 308.545654,56.6749038 307.977356,56.1847242 C307.409816,55.6949242 307.42838,55.1117205 308.137616,54.4476429 C309.776966,52.9121769 316.675344,46.9297828 306.824848,48.8282323 C303.416955,49.4847162 299.085388,51.7818401 294.748518,54.0964297 C293.658901,54.6777349 292.589743,55.3030842 291.544454,55.9607071 C290.522276,58.3687005 288.308945,61.7942628 284.913933,66.3414291 C279.704536,73.318231 271.116797,81.6945699 269.50662,79.701198 C267.896443,77.707826 273.942374,68.7934664 281.851187,61.4844358 C284.594929,58.9488667 287.53947,56.7508418 290.446503,54.8835269 C290.474539,54.8242953 290.495376,54.7787325 290.502196,54.760887 C290.64427,54.3811971 290.684051,53.8017903 290.194557,53.5959984 C289.71946,53.3962815 286.587381,53.414127 275.757897,53.7266117 C274.305706,53.7683776 272.635289,51.1944598 271.732453,51.1694003 C270.595858,51.137886 266.335518,56.5856767 264.235847,56.6016237 C262.687045,56.6130144 260.224421,54.0170745 259.103738,54.0015072 C258.045946,53.9863196 255.078294,56.8021 250.626628,56.612255 C245.941201,56.4125381 245.790034,52.3718782 247.753314,49.967302 C249.600282,47.7047299 253.401058,45.8829777 253.401058,45.8829777 L253.612465,46.0242224 C253.612465,46.0242224 250.573208,47.8304073 249.063808,49.7930244 C245.401318,54.5550951 250.373925,56.1687772 253.610192,55.0771687 C256.255429,54.1848975 258.233484,52.2150662 259.419333,52.2610087 C260.536227,52.3046731 263.018931,55.0562858 264.265777,55.0931157 C265.339102,55.12463 270.643595,49.4171314 271.858615,49.4566191 C272.963765,49.4926896 275.152091,52.4322489 276.293233,52.3756751 C277.810968,52.3004965 289.697107,51.9063784 290.937891,51.9952258 C291.521343,52.0369917 291.985832,52.0871107 292.159731,52.95736 C292.208984,53.2052975 292.214667,53.4885462 292.181327,53.8044482 C296.820532,51.0122086 301.239237,49.0773089 304.441028,47.9894973 C309.533734,46.2596301 313.241689,47.2460645 313.739139,49.0495915 C314.323728,51.1701596 310.348295,53.9198739 310.834379,54.5866094 C311.434501,55.4093974 319.855539,50.719088 321.837384,51.0114493 C323.39452,51.2411616 323.935918,53.2968028 326.320496,54.4286584 C328.704316,55.5601343 333.740572,50.9005798 338.349468,45.0153863 C338.552919,44.7556784 338.764325,44.4785048 338.979142,44.1941171 C338.196028,43.986047 337.413292,43.7813941 336.634345,43.5847148 C328.137534,41.4383277 316.801885,39.2786516 311.506486,38.304747 L311.636436,38.1479351 C317.011777,38.8416285 328.581943,40.4921405 339.780821,43.114279 C344.645072,36.4389508 351.608615,25.0235739 354.035247,21 L354.220512,21 C353.208185,23.0898132 351.100936,27.2694397 348.050313,32.4681538 L348.051071,32.4673944 L348.049555,32.4696726 C347.296371,33.7530244 346.485978,35.0982658 345.620271,36.4894496 C344.484433,38.5390157 343.191745,41.1387524 342.31202,43.7248203 C342.596548,43.7958224 342.881075,43.8672041 343.164467,43.9397248 Z M235.534909,45.6008681 C240.349908,49.0180773 244.504544,51.7860167 244.071501,54.0178339 C243.787352,55.4815385 242.671215,56.6114956 239.765697,56.6118753 C220.719762,56.6130144 213.659608,56.6118753 212.645007,56.6118753 C211.413695,56.6118753 211.182208,55.3342188 211.745202,54.6185033 C213.526247,52.3551718 216.758347,48.6095309 218.120746,47.0402726 L218.267746,47.0402726 C217.317931,48.4641097 215.220533,51.6189531 214.238893,53.1931474 C213.855102,53.8086248 213.727046,54.2813387 213.971035,54.6659646 C214.136978,54.9268115 214.656024,54.9545289 215.581213,54.9981932 C220.083647,55.2089211 239.519435,54.9951557 240.049846,54.9662993 C241.652067,54.8793503 242.563996,53.366286 240.870847,51.8023433 C235.397002,46.7463926 209.994465,29.513407 200,22.7875801 L200.223531,22.7875801 C209.576577,28.739599 231.339734,42.6233399 235.534909,45.6008681 Z" id="Combined-Shape"></path>
                </g>
            </g>
        </g>
    </g>
</svg>